<svg width="28" height="28" viewBox="0 0 28 28" fill="none" xmlns="http://www.w3.org/2000/svg">
<path d="M23.0801 4.23645V23.7638H23.0527V4.23645H23.0801Z" stroke="#111111" stroke-width="1.47347" stroke-linecap="round" stroke-linejoin="round"/>
<path d="M11.4974 9.41036C10.0115 9.41036 8.64674 9.94416 7.55161 10.8302V4.99133H4.2002V22.9976H7.55161V21.908C8.64674 22.794 10.0115 23.3278 11.4974 23.3278C15.1074 23.3278 18.0351 20.213 18.0351 16.3663C18.0351 12.5196 15.1074 9.40485 11.4974 9.40485V9.41036ZM11.0791 20.3231C8.99894 20.3231 7.31497 18.5566 7.31497 16.3773C7.31497 14.1981 8.99894 12.4316 11.0791 12.4316C13.1593 12.4316 14.8433 14.1981 14.8433 16.3773C14.8433 18.5566 13.1593 20.3231 11.0791 20.3231Z" stroke="#111111" stroke-width="1.47347" stroke-linecap="round"/>
</svg>
