<svg xmlns="http://www.w3.org/2000/svg" width="128" height="128" viewBox="0 0 28 28" role="img" aria-label="LG">
  <path d="M14 28C21.7334 28 28 21.7274 28 13.9981C28 6.26886 21.7334 0 14 0C6.26662 0 0 6.26476 0 13.9981C0 21.7315 6.26849 28 14 28Z" fill="#A50034"/>
  <path d="M14.5577 2.28442V3.37622C14.4301 3.37324 14.1292 3.37036 14.0011 3.37036C11.1648 3.37036 8.49775 4.4744 6.49125 6.48462C4.48377 8.48917 3.37903 11.1589 3.37895 13.9954C3.37895 16.8319 4.48372 19.501 6.49125 21.5071C8.49813 23.5128 11.1648 24.6174 14.0011 24.6174C19.6183 24.6174 24.2312 20.2356 24.6036 14.7092V14.552H17.3536V13.4641H25.2491L25.7159 13.4602V13.9954C25.7159 17.1257 24.4998 20.066 22.2921 22.2786C20.0716 24.4927 17.1262 25.7102 14.0011 25.7102C10.8759 25.7102 7.93083 24.4927 5.71001 22.2786C3.50046 20.066 2.28522 17.126 2.28521 13.9954C2.28521 7.53305 7.54244 2.27466 14.0011 2.27466C14.1355 2.27466 14.4145 2.27847 14.5577 2.28442ZM14.5577 19.0344H17.3448V20.1262H13.4444V7.85376H14.5577V19.0344ZM9.53127 7.84692C10.4595 7.84712 11.212 8.60384 11.212 9.52759C11.212 10.4515 10.4597 11.2042 9.53127 11.2043C8.60986 11.2043 7.85552 10.4565 7.85552 9.52759C7.85573 8.59888 8.60292 7.84692 9.53127 7.84692Z" fill="white"/>
</svg>
